<svg width="112" height="112" viewBox="0 0 112 112" fill="none" xmlns="http://www.w3.org/2000/svg">
<g id="AI" filter="url(#filter0_d_48_107)">
<path id="Vector" d="M86.7071 10.9392H26.0552C17.7299 10.9392 10.9809 17.8541 10.9809 26.3841V86.2015C10.9809 94.7315 17.7299 101.646 26.0552 101.646H86.7071C95.0324 101.646 101.781 94.7315 101.781 86.2015V26.3841C101.781 17.8541 95.0324 10.9392 86.7071 10.9392Z" fill="#330000"/>
<path id="Vector_2" d="M54.9815 65.3742H40.911L38.0479 74.486C38.009 74.6522 37.9147 74.7993 37.7812 74.9018C37.6478 75.0044 37.4836 75.056 37.3169 75.0479H30.1902C29.784 75.0479 29.6418 74.8189 29.7638 74.361L41.9463 38.4132C42.068 38.0389 42.19 37.6126 42.3117 37.134C42.4713 36.3011 42.5528 35.455 42.5553 34.6065C42.547 34.5471 42.5524 34.4866 42.5708 34.4297C42.5893 34.3728 42.6205 34.3211 42.6619 34.2787C42.7032 34.2363 42.7536 34.2043 42.8092 34.1853C42.8647 34.1663 42.9237 34.1609 42.9817 34.1693H52.6668C52.9506 34.1693 53.113 34.2736 53.1542 34.4818L66.981 74.4235C67.103 74.84 66.981 75.0482 66.6157 75.0479H58.6969C58.5609 75.0633 58.4241 75.0275 58.312 74.9471C58.1999 74.8667 58.1202 74.7472 58.0879 74.611L54.9815 65.3742ZM43.1037 57.5108H52.7278L52.5906 57.0467L52.3703 56.3119L52.2132 55.7958L51.9624 54.9833L51.4293 53.2727L50.9604 51.7562L49.7428 47.8059C49.4397 46.8239 49.1488 45.838 48.8702 44.8485L48.6475 44.0453L48.3871 43.0957L47.9899 41.6239L47.9154 41.3466H47.8547C47.55 42.8447 47.1788 44.3277 46.7424 45.7912L45.8387 48.7697L45.3414 50.4152L44.8395 52.0811C44.7487 52.382 44.6586 52.6796 44.5682 52.9736L44.2986 53.8451L44.0305 54.6962L43.7638 55.5262L43.4985 56.3355C43.4105 56.6019 43.3225 56.8646 43.2349 57.1241L43.1037 57.5108ZM75.2034 40.7848C74.5822 40.8104 73.9627 40.7013 73.3854 40.4647C72.8081 40.2281 72.286 39.8693 71.8534 39.4119C71.4219 38.9345 71.0867 38.3745 70.8672 37.764C70.6476 37.1535 70.548 36.5045 70.574 35.8544C70.5519 35.2109 70.6626 34.5698 70.8987 33.973C71.1349 33.3762 71.4913 32.8372 71.9445 32.3911C72.8189 31.5312 73.9833 31.0499 75.1953 31.0476L75.3251 31.0491C76.7871 31.0491 77.9345 31.4961 78.767 32.3908C79.1871 32.8556 79.5137 33.4009 79.7279 33.9952C79.9422 34.5895 80.0399 35.2213 80.0155 35.8544C80.041 36.5071 79.9383 37.1584 79.7133 37.7696C79.4884 38.3807 79.1458 38.9394 78.706 39.4122C78.2619 39.8607 77.7348 40.2135 77.1556 40.4501C76.5765 40.6866 75.957 40.802 75.3336 40.7895L75.2034 40.7848ZM71.0004 74.4235V44.5919C71.0004 44.2176 71.1621 44.0301 71.4877 44.0301H78.9802C79.3047 44.0301 79.4671 44.2172 79.4675 44.5919V74.4235C79.4675 74.84 79.3051 75.0482 78.9802 75.0479H71.5487C71.2025 75.0479 71.0202 74.8611 71.0021 74.4875L71.0004 74.4235Z" fill="#FF9A00"/>
</g>
<defs>
<filter id="filter0_d_48_107" x="0.980896" y="0.939209" width="110.8" height="110.707" filterUnits="userSpaceOnUse" color-interpolation-filters="sRGB">
<feFlood flood-opacity="0" result="BackgroundImageFix"/>
<feColorMatrix in="SourceAlpha" type="matrix" values="0 0 0 0 0 0 0 0 0 0 0 0 0 0 0 0 0 0 127 0" result="hardAlpha"/>
<feOffset/>
<feGaussianBlur stdDeviation="5"/>
<feComposite in2="hardAlpha" operator="out"/>
<feColorMatrix type="matrix" values="0 0 0 0 0 0 0 0 0 0 0 0 0 0 0 0 0 0 0.5 0"/>
<feBlend mode="normal" in2="BackgroundImageFix" result="effect1_dropShadow_48_107"/>
<feBlend mode="normal" in="SourceGraphic" in2="effect1_dropShadow_48_107" result="shape"/>
</filter>
</defs>
</svg>
