<svg width="112" height="112" viewBox="0 0 112 112" fill="none" xmlns="http://www.w3.org/2000/svg">
<g id="Animate" filter="url(#filter0_d_48_126)">
<path id="Vector" d="M86.5492 10.8464H25.8973C17.572 10.8464 10.823 17.7614 10.823 26.2914V86.1087C10.823 94.6387 17.572 101.554 25.8973 101.554H86.5492C94.8745 101.554 101.623 94.6387 101.623 86.1087V26.2914C101.623 17.7614 94.8745 10.8464 86.5492 10.8464Z" fill="#00005B"/>
<path id="Vector_2" d="M47.538 65.1153H33.4674L30.5774 74.2126C30.5407 74.3689 30.4548 74.5086 30.3331 74.6101C30.2113 74.7116 30.0604 74.7693 29.9035 74.7744H22.72C22.3135 74.7744 22.1713 74.5454 22.2937 74.0876L34.5269 38.3207L34.689 37.829C34.7567 37.6208 34.8245 37.3995 34.8922 37.1335C35.0518 36.3009 35.1334 35.4545 35.1359 34.6059C35.1277 34.5466 35.133 34.4861 35.1515 34.4293C35.1701 34.3725 35.2012 34.3208 35.2426 34.2784C35.2839 34.2361 35.3344 34.2041 35.3898 34.1851C35.4453 34.1662 35.5043 34.1607 35.5622 34.1691H45.247C45.5308 34.1691 45.6932 34.2731 45.7344 34.4813L59.5105 74.1501C59.6325 74.5662 59.5105 74.7744 59.1452 74.774H51.2267C51.0907 74.7896 50.9538 74.7538 50.8416 74.6734C50.7295 74.593 50.6498 74.4735 50.6174 74.3372L47.538 65.1153ZM35.6843 57.4179H45.308L45.1711 56.9539L44.9505 56.219L44.6285 55.1666L44.0095 53.1798L42.3233 47.7131C42.0203 46.7311 41.7294 45.7452 41.4508 44.7556L41.1394 43.6305L40.884 42.6976L40.5701 41.5311L40.496 41.2538H40.4353C40.1304 42.7518 39.7592 44.2349 39.3227 45.6983L38.9112 47.0513L37.9216 50.322L37.2843 52.437L37.0136 53.319L36.7448 54.1803L36.4773 55.0209C36.2201 55.8224 35.956 56.6214 35.6843 57.4179ZM63.7742 74.1802V51.1767C63.7742 51.0197 63.7742 50.8584 63.7728 50.6934L63.7686 50.1846L63.7611 49.6515L63.7441 48.8055L63.7239 48.0667C63.7129 47.71 63.6999 47.3533 63.6849 46.9968L63.6529 46.3088L63.6068 45.4556L63.5685 44.8305L63.5458 44.5114L63.5309 44.3268C63.5073 44.2646 63.5004 44.197 63.5111 44.1311C63.5217 44.0652 63.5496 44.0035 63.5916 43.9525C63.6414 43.9078 63.6993 43.8738 63.7621 43.8524C63.8249 43.831 63.8913 43.8226 63.9573 43.8278H70.0377C70.2475 43.8207 70.456 43.8634 70.6471 43.9525C70.8113 44.0393 70.9244 44.2022 70.9514 44.3893L71.2256 45.2321C71.3377 45.645 71.4092 46.0684 71.4387 46.496C72.6164 45.4391 73.9811 44.6235 75.4588 44.0935C76.928 43.5724 78.4724 43.3086 80.0272 43.3133C81.238 43.319 82.4404 43.5192 83.5907 43.9063C84.9186 44.3413 86.1298 45.0864 87.1287 46.0828C88.1276 47.0793 88.887 48.2998 89.347 49.6482C89.956 51.2501 90.1947 53.3201 90.1947 55.8574V74.1802C90.1947 74.5545 90.0322 74.7417 89.7074 74.7417L82.5909 74.8064C82.5081 74.8186 82.4237 74.8109 82.3444 74.7839C82.265 74.7568 82.1929 74.7112 82.1338 74.6507C82.0746 74.5901 82.0301 74.5162 82.0036 74.435C81.9772 74.3537 81.9696 74.2672 81.9815 74.1824V56.7983C81.9618 55.6341 81.7117 54.486 81.2462 53.4237C80.9195 52.6399 80.3804 51.9684 79.6927 51.4889C78.9156 51.0016 78.0144 50.7626 77.1042 50.8024C76.1252 50.7879 75.1534 50.9685 74.2415 51.333C73.4078 51.674 72.6435 52.1713 71.9878 52.7993V74.1802C71.9878 74.5545 71.8253 74.7417 71.5004 74.7417H64.3233C64.2488 74.7526 64.1729 74.7456 64.1015 74.7213C64.0302 74.6969 63.9653 74.6559 63.9121 74.6014C63.8589 74.5469 63.8188 74.4805 63.795 74.4074C63.7712 74.3343 63.7643 74.2565 63.7749 74.1802" fill="#9999FF"/>
</g>
<defs>
<filter id="filter0_d_48_126" x="0.822998" y="0.846436" width="110.801" height="110.707" filterUnits="userSpaceOnUse" color-interpolation-filters="sRGB">
<feFlood flood-opacity="0" result="BackgroundImageFix"/>
<feColorMatrix in="SourceAlpha" type="matrix" values="0 0 0 0 0 0 0 0 0 0 0 0 0 0 0 0 0 0 127 0" result="hardAlpha"/>
<feOffset/>
<feGaussianBlur stdDeviation="5"/>
<feComposite in2="hardAlpha" operator="out"/>
<feColorMatrix type="matrix" values="0 0 0 0 0 0 0 0 0 0 0 0 0 0 0 0 0 0 0.5 0"/>
<feBlend mode="normal" in2="BackgroundImageFix" result="effect1_dropShadow_48_126"/>
<feBlend mode="normal" in="SourceGraphic" in2="effect1_dropShadow_48_126" result="shape"/>
</filter>
</defs>
</svg>
