<svg width="95" height="52" viewBox="0 0 95 52" fill="none" xmlns="http://www.w3.org/2000/svg">
<path id="Vector" d="M24.7589 24.743C29.0037 19.7973 34.684 16.2581 41.0318 14.6038C47.3796 12.9496 54.0887 13.2601 60.2519 15.4933C66.4152 17.7266 71.7354 21.775 75.4932 27.091C79.251 32.407 81.2651 38.7343 81.2631 45.2174C81.2631 47.0163 81.9868 48.7414 83.2749 50.0134C84.5629 51.2854 86.31 52 88.1316 52C89.9532 52 91.7002 51.2854 92.9883 50.0134C94.2764 48.7414 95 47.0163 95 45.2174C95 20.2438 74.5 2.69392e-05 49.2105 2.69392e-05C42.8075 -0.00688408 36.4745 1.316 30.6228 3.8828C24.7711 6.4496 19.5314 10.2029 15.2439 14.8992L13.655 6.01394C13.5143 5.12275 13.1952 4.26822 12.7161 3.50033C12.237 2.73244 11.6076 2.06663 10.8647 1.54184C10.1219 1.01706 9.28056 0.643856 8.3899 0.444061C7.49925 0.244266 6.57718 0.221896 5.67767 0.378262C4.77815 0.534628 3.91925 0.866587 3.15122 1.35472C2.38319 1.84285 1.72147 2.47734 1.20476 3.22107C0.688061 3.9648 0.326758 4.80283 0.141998 5.68612C-0.0427614 6.5694 -0.0472675 7.48021 0.128744 8.36524L4.90001 35.0887C5.21596 36.8567 6.2279 38.4348 7.72522 39.4657C9.57054 40.7409 12.002 41.0257 14.0671 40.3791L39.9107 35.8755C40.8131 35.7366 41.6785 35.4214 42.4561 34.9483C43.2337 34.4752 43.9079 33.8537 44.4393 33.1201C44.9708 32.3866 45.3487 31.5557 45.551 30.6762C45.7533 29.7967 45.776 28.8861 45.6176 27.9979C45.4593 27.1096 45.1231 26.2614 44.6288 25.503C44.1345 24.7446 43.492 24.0911 42.7389 23.5809C41.9857 23.0706 41.1371 22.7138 40.2426 22.5314C39.3482 22.3489 38.4258 22.3445 37.5296 22.5183L24.7635 24.7384L24.7589 24.743Z" fill="#FAB833"/>
</svg>
