<svg width="1920" height="3585" viewBox="0 0 1920 3585" fill="none" xmlns="http://www.w3.org/2000/svg">
<path d="M-3.33059 46.2629C-2.19109 19.5353 19.7479 0 46.4998 0H1870.8C1897.61 0 1919.6 19.97 1920.67 46.7584C1937.5 467.932 2057.74 3589.02 1918.77 3444.65C1769.77 3289.85 1765.77 3270.32 1603.01 3444.65C1440.25 3618.99 1439.25 3623.5 1287.24 3444.65C1135.23 3265.81 1137.23 3261.3 971.473 3444.65C805.714 3628.01 803.214 3635.52 655.706 3444.65C508.198 3253.78 505.698 3280.84 327.188 3444.65C148.678 3608.47 144.178 3611.47 -1.32983 3444.65C-136.622 3289.54 -20.3276 444.939 -3.33059 46.2629Z" fill="#F5E1B8" fill-opacity="0.65"/>
</svg>
