<svg width="1920" height="2037" viewBox="0 0 1920 2037" fill="none" xmlns="http://www.w3.org/2000/svg">
<path d="M27.2164 46.2236C29.0817 20.1383 50.7994 0 76.9512 0H1842.31C1868.56 0 1890.28 19.681 1892.04 45.8714C1912.34 347.96 2020.25 2037.36 1888.91 1957.25C1744.69 1869.3 1740.82 1858.2 1583.3 1957.25C1425.78 2056.31 1424.81 2058.87 1277.69 1957.25C1130.58 1855.63 1132.51 1853.07 972.088 1957.25C811.663 2061.44 809.243 2065.71 666.481 1957.25C523.72 1848.8 521.301 1864.17 348.535 1957.25C175.77 2050.33 171.415 2052.04 30.5891 1957.25C-97.0182 1871.36 6.63414 334.056 27.2164 46.2236Z" fill="#F5E1B8" fill-opacity="0.5"/>
</svg>
