<svg width="1920" height="1081" viewBox="0 0 1920 1081" fill="none" xmlns="http://www.w3.org/2000/svg">
<path d="M24.7629 42.9481C28.0145 18.2719 49.0805 0 73.97 0H1845.11C1870.18 0 1891.31 18.2442 1894.4 43.122C1919.38 244.368 2015.8 1079.75 1888.91 1038.68C1744.69 992.003 1740.82 986.112 1583.3 1038.68C1425.78 1091.25 1424.81 1092.61 1277.69 1038.68C1130.58 984.752 1132.51 983.393 972.088 1038.68C811.663 1093.97 809.243 1096.23 666.481 1038.68C523.72 981.127 521.301 989.284 348.535 1038.68C175.77 1088.08 171.415 1088.98 30.5891 1038.68C-92.5511 994.695 -0.339592 233.453 24.7629 42.9481Z" fill="#F5E1B8" fill-opacity="0.65"/>
</svg>
