<svg width="116" height="102" viewBox="0 0 116 102" fill="none" xmlns="http://www.w3.org/2000/svg">
<g id="Capcut" filter="url(#filter0_d_48_111)">
<rect id="Rectangle 5" x="10.5244" y="10.8625" width="94.8199" height="80.8124" rx="10" fill="white"/>
<path id="Vector" d="M90.2593 67.9166L25.6094 35.4539V33.17C25.607 32.3617 25.7649 31.5609 26.074 30.8135C26.3832 30.0662 26.8374 29.387 27.4108 28.815C27.9842 28.243 28.6653 27.7894 29.4151 27.4803C30.1649 27.1712 30.9686 27.0126 31.7801 27.0137H68.2507C69.0622 27.0126 69.8659 27.1712 70.6157 27.4803C71.3655 27.7894 72.0466 28.243 72.62 28.815C73.1933 29.387 73.6476 30.0662 73.9567 30.8135C74.2659 31.5609 74.4238 32.3617 74.4214 33.17V35.9691" stroke="black" stroke-width="8" stroke-linecap="round" stroke-linejoin="round"/>
<path id="Vector_2" d="M90.2593 28.0898L25.6094 61.0588L25.6177 63.8174C25.6153 64.6384 25.7732 65.4517 26.0824 66.2108C26.3916 66.9698 26.846 67.6596 27.4194 68.2405C27.9929 68.8214 28.6741 69.282 29.424 69.5958C30.1739 69.9096 30.9777 70.0704 31.7892 70.0691H68.2518C69.0633 70.0704 69.8671 69.9096 70.617 69.5958C71.3669 69.282 72.0482 68.8214 72.6216 68.2405C73.1951 67.6596 73.6495 66.9698 73.9587 66.2108C74.2679 65.4517 74.4258 64.6384 74.4234 63.8174V60.5507" stroke="black" stroke-width="8" stroke-linecap="round" stroke-linejoin="round"/>
</g>
<defs>
<filter id="filter0_d_48_111" x="0.524414" y="0.862549" width="114.82" height="100.812" filterUnits="userSpaceOnUse" color-interpolation-filters="sRGB">
<feFlood flood-opacity="0" result="BackgroundImageFix"/>
<feColorMatrix in="SourceAlpha" type="matrix" values="0 0 0 0 0 0 0 0 0 0 0 0 0 0 0 0 0 0 127 0" result="hardAlpha"/>
<feOffset/>
<feGaussianBlur stdDeviation="5"/>
<feComposite in2="hardAlpha" operator="out"/>
<feColorMatrix type="matrix" values="0 0 0 0 0 0 0 0 0 0 0 0 0 0 0 0 0 0 0.5 0"/>
<feBlend mode="normal" in2="BackgroundImageFix" result="effect1_dropShadow_48_111"/>
<feBlend mode="normal" in="SourceGraphic" in2="effect1_dropShadow_48_111" result="shape"/>
</filter>
</defs>
</svg>
