<svg width="44" height="35" viewBox="0 0 44 35" fill="none" xmlns="http://www.w3.org/2000/svg">
<path id="Vector" d="M42.7319 0.908193C43.1106 1.36281 43.1865 1.86046 42.9597 2.40113L29.3534 33.4076C29.1798 33.7973 28.8746 34.0565 28.4379 34.1852C28.2125 34.2478 27.9803 34.2489 27.7412 34.1884C27.5865 34.1493 27.4266 34.0715 27.2615 33.955L18.6928 27.6385L12.0114 32.5645C11.6763 32.8236 11.2908 32.898 10.8548 32.7877C10.6719 32.7415 10.5243 32.6743 10.412 32.586C10.1697 32.4201 9.99704 32.2007 9.89406 31.928C9.79108 31.6552 9.7752 31.3784 9.84643 31.0973L11.7108 23.7419L35.596 6.03317L8.10171 19.8237L0.633738 14.3015C0.1632 13.9732 -0.0201581 13.5156 0.0836633 12.9289C0.197988 12.3597 0.528085 12.0022 1.07395 11.8562L41.308 0.503163C41.551 0.430073 41.7921 0.423766 42.0312 0.484246C42.3125 0.555399 42.5461 0.696715 42.7319 0.908193Z" fill="#F8F8F8"/>
</svg>
