<svg width="45" height="42" viewBox="0 0 45 42" fill="none" xmlns="http://www.w3.org/2000/svg">
<path id="Vector" d="M22.5 0.755447C22.5 0.755447 8.5815 12.9063 0.80325 19.4868C0.555743 19.7049 0.356333 19.9732 0.217954 20.2743C0.0795747 20.5753 0.00531814 20.9024 0 21.2344C0 21.8379 0.237053 22.4166 0.65901 22.8434C1.08097 23.2701 1.65326 23.5098 2.25 23.5098H6.75V39.4379C6.75 40.0414 6.98705 40.6201 7.40901 41.0469C7.83097 41.4736 8.40326 41.7133 9 41.7133H15.75C16.3467 41.7133 16.919 41.4736 17.341 41.0469C17.7629 40.6201 18 40.0414 18 39.4379V30.3361H27V39.4379C27 40.0414 27.2371 40.6201 27.659 41.0469C28.081 41.4736 28.6533 41.7133 29.25 41.7133H36C36.5967 41.7133 37.169 41.4736 37.591 41.0469C38.0129 40.6201 38.25 40.0414 38.25 39.4379V23.5098H42.75C43.3467 23.5098 43.919 23.2701 44.341 22.8434C44.7629 22.4166 45 21.8379 45 21.2344C44.9969 20.8961 44.9176 20.5629 44.7683 20.2601C44.619 19.9574 44.4036 19.6929 44.1383 19.4868C36.414 12.9063 22.5 0.755447 22.5 0.755447Z" fill="#F8F8F8"/>
</svg>
