<svg width="67" height="68" viewBox="0 0 67 68" fill="none" xmlns="http://www.w3.org/2000/svg">
<path id="IG" d="M48.3461 0.218167C51.7463 0.376833 54.0969 0.884 56.2688 1.73967C58.3282 2.52113 60.1926 3.75358 61.7293 5.34933C63.3016 6.90905 64.5159 8.80125 65.2859 10.8913C66.129 13.0985 66.6287 15.4813 66.785 18.9323C66.9777 23.2107 67 24.718 67 34C67 43.282 66.9777 44.7893 66.785 49.0677C66.6287 52.5187 66.129 54.9043 65.2859 57.1115C64.5156 59.2006 63.3013 61.0918 61.7293 62.6507C60.1926 64.2465 58.3282 65.479 56.2688 66.2603C54.0941 67.116 51.7463 67.6232 48.3461 67.7818C44.1307 67.9773 42.6483 68 33.5 68C24.3517 68 22.8665 67.9773 18.6539 67.7818C15.2537 67.6232 12.9031 67.116 10.7284 66.2603C8.66998 65.4786 6.80658 64.2461 5.27067 62.6507C3.69838 61.091 2.48405 59.1988 1.71408 57.1087C0.871 54.9015 0.371292 52.5187 0.214958 49.0677C0.0223333 44.795 0 43.2877 0 34C0 24.7152 0.0223333 23.205 0.214958 18.9323C0.371292 15.4813 0.871 13.0957 1.71408 10.8913C2.48405 8.80125 3.69838 6.90905 5.27067 5.34933C6.80664 3.75392 8.67002 2.5215 10.7284 1.73967C12.9059 0.884 15.2537 0.376833 18.6539 0.218167C22.8638 0.0226667 24.3489 0 33.5 0C42.6483 0 44.1363 0.0226667 48.3461 0.218167ZM33.5 7.5565C24.455 7.5565 23.0703 7.57633 18.9917 7.76617C16.4038 7.88517 14.8517 8.2195 13.4251 8.78333C12.3302 9.1863 11.3408 9.83861 10.533 10.6902C9.69214 11.5086 9.04913 12.5132 8.65417 13.6255C8.10142 15.0705 7.76921 16.6487 7.65196 19.2752C7.46492 23.4147 7.44538 24.82 7.44538 34C7.44538 43.18 7.46492 44.5853 7.65196 48.7248C7.76921 51.3513 8.09863 52.9267 8.65417 54.3717C9.12875 55.607 9.63125 56.3918 10.533 57.3098C11.4375 58.2278 12.2108 58.7378 13.4251 59.2167C14.8489 59.7777 16.4038 60.1148 18.9917 60.2338C23.0731 60.4237 24.4578 60.4435 33.5 60.4435C42.545 60.4435 43.9269 60.4237 48.0083 60.2338C50.5962 60.1148 52.1483 59.7805 53.5749 59.2167C54.6698 58.8137 55.6592 58.1614 56.467 57.3098C57.3715 56.3918 57.874 55.607 58.3458 54.3745C58.8986 52.9295 59.2308 51.3513 59.348 48.7248C59.5351 44.5825 59.5546 43.1772 59.5546 34C59.5546 24.8228 59.5351 23.4175 59.348 19.2752C59.2308 16.6487 58.9014 15.0733 58.3458 13.6283C57.9511 12.5151 57.3081 11.5095 56.467 10.6902C55.6598 9.83651 54.669 9.1839 53.5721 8.78333C52.1483 8.22233 50.5934 7.88517 48.0055 7.76617C43.9269 7.57633 42.5422 7.5565 33.4972 7.5565M33.4972 51.629C28.8905 51.629 24.4724 49.7717 21.2149 46.4656C17.9575 43.1595 16.1275 38.6755 16.1275 34C16.1275 29.3245 17.9575 24.8405 21.2149 21.5344C24.4724 18.2283 28.8905 16.371 33.4972 16.371C38.104 16.371 42.522 18.2283 45.7795 21.5344C49.0369 24.8405 50.867 29.3245 50.867 34C50.867 38.6755 49.0369 43.1595 45.7795 46.4656C42.522 49.7717 38.104 51.629 33.4972 51.629ZM33.4972 44.0753C36.1301 44.0753 38.6551 43.0138 40.5168 41.1243C42.3785 39.2348 43.4244 36.6721 43.4244 34C43.4244 31.3279 42.3785 28.7652 40.5168 26.8757C38.6551 24.9862 36.1301 23.9247 33.4972 23.9247C30.8644 23.9247 28.3393 24.9862 26.4776 26.8757C24.6159 28.7652 23.57 31.3279 23.57 34C23.57 36.6721 24.6159 39.2348 26.4776 41.1243C28.3393 43.0138 30.8644 44.0753 33.4972 44.0753ZM50.867 20.1478C49.8796 20.1478 48.9328 19.7498 48.2346 19.0412C47.5365 18.3326 47.1443 17.3716 47.1443 16.3696C47.1443 15.3675 47.5365 14.4065 48.2346 13.698C48.9328 12.9894 49.8796 12.5913 50.867 12.5913C51.8543 12.5913 52.8012 12.9894 53.4993 13.698C54.1974 14.4065 54.5896 15.3675 54.5896 16.3696C54.5896 17.3716 54.1974 18.3326 53.4993 19.0412C52.8012 19.7498 51.8543 20.1478 50.867 20.1478Z" fill="#FAB833"/>
</svg>
