<svg width="35" height="36" viewBox="0 0 35 36" fill="none" xmlns="http://www.w3.org/2000/svg">
<path id="Vector" d="M15.75 21.3496H1.75V31.8388C1.75 32.7661 2.11875 33.6554 2.77513 34.3111C3.4315 34.9668 4.32174 35.3352 5.25 35.3352H29.75C30.6783 35.3352 31.5685 34.9668 32.2249 34.3111C32.8812 33.6554 33.25 32.7661 33.25 31.8388V21.3496H19.25V24.846H15.75V21.3496ZM15.75 19.6014H0V9.11216C0 7.18914 1.575 5.61576 3.5 5.61576H10.5V3.86756C10.5 2.94025 10.8687 2.05093 11.5251 1.39523C12.1815 0.739525 13.0717 0.371155 14 0.371155L21 0.371155C21.9283 0.371155 22.8185 0.739525 23.4749 1.39523C24.1313 2.05093 24.5 2.94025 24.5 3.86756V5.61576H31.5C32.4283 5.61576 33.3185 5.98413 33.9749 6.63983C34.6312 7.29554 35 8.18486 35 9.11216V19.6014H19.25V16.105H15.75V19.6014ZM21 5.61576V3.86756H14V5.61576H21Z" fill="#F8F8F8"/>
</svg>
