<svg width="112" height="111" viewBox="0 0 112 111" fill="none" xmlns="http://www.w3.org/2000/svg">
<g id="Premier" filter="url(#filter0_d_54_146)">
<path id="Vector" d="M27.0003 10.2888H85.6425C94.5331 10.2888 101.722 17.6423 101.722 26.7369V84.4027C101.722 93.4974 94.5331 100.851 85.6425 100.851H27.0003C18.1096 100.851 10.9211 93.4974 10.9211 84.4027V26.7369C10.9211 17.6423 18.1096 10.2888 27.0003 10.2888Z" fill="#00005B"/>
<path id="Vector_2" d="M32.4862 73.7983V33.9742C32.4862 33.7032 32.5997 33.5486 32.8647 33.5486L33.4137 33.5475L33.8386 33.5439L34.1383 33.5381L34.4576 33.5298L34.8006 33.5174L34.9832 33.5098C35.3237 33.4953 35.6695 33.4862 36.0225 33.4786L37.106 33.4554C37.2291 33.4525 37.3536 33.4492 37.4788 33.4452L37.8583 33.4325C38.1988 33.4194 38.5478 33.4107 38.9054 33.4035L40.0024 33.3835L40.7618 33.3665L41.1502 33.3549C41.9319 33.3295 42.697 33.3208 43.4564 33.3179L44.5928 33.3164C47.6953 33.3164 50.2678 33.7032 52.3868 34.5159C54.286 35.1757 56.0177 36.2599 57.4563 37.6896C58.6755 38.9407 59.6174 40.4454 60.2183 42.1016C60.7858 43.7271 61.0884 45.3913 61.0884 47.1329C61.0884 50.4612 60.3318 53.2089 58.8183 55.3764C57.3049 57.5436 55.1863 59.169 52.7273 60.0979C50.2402 61.0333 47.5059 61.3896 44.524 61.4124H43.4426L43.0215 61.4081L42.7516 61.4015L42.5927 61.3946L42.4501 61.3859L42.3228 61.375C42.2411 61.3669 42.1593 61.3606 42.0774 61.3562L41.8929 61.3478L41.6908 61.3424L41.3534 61.3377L40.6962 61.3362V73.7595C40.7338 74.0305 40.5447 74.2627 40.2798 74.3015H32.9402C32.6377 74.3015 32.4862 74.1466 32.4862 73.7983ZM40.7338 41.0178V54.0216L41.1786 54.0542C41.5216 54.0811 41.8653 54.0961 42.2093 54.0992H44.2147C45.6902 54.0992 47.1657 53.867 48.5653 53.4026C49.7762 53.0543 50.8354 52.3188 51.6678 51.3512C52.4623 50.3839 52.8408 49.0679 52.8408 47.3651C52.8763 46.1556 52.5744 44.9608 51.9704 43.9204C51.3543 42.9564 50.4945 42.2053 49.4584 41.7696L49.3222 41.7144C47.9223 41.1339 46.4088 40.9017 44.8578 40.9405L43.9831 40.9416L43.572 40.9442L43.1794 40.9496L42.8066 40.9583C42.625 40.9634 42.4508 40.9703 42.2852 40.9793C42.2039 40.9752 42.1226 40.9718 42.0412 40.9692L41.8145 40.9641C41.7791 40.9637 41.7436 40.9635 41.7081 40.9634L41.5074 40.9645L41.3251 40.9696L41.2407 40.9732L41.0856 40.9823L40.9495 40.9931L40.8881 40.9989L40.7806 41.0116L40.7338 41.0178ZM66.3849 43.2626H73.0059C73.3631 43.2626 73.6532 43.5043 73.7799 43.8247L73.8004 43.882C73.9139 44.1915 73.9895 44.501 74.0274 44.8493C74.103 45.2364 74.1789 45.662 74.2165 46.0492L74.2484 46.4236C74.2732 46.7432 74.2924 47.0832 74.2924 47.4424C75.3758 46.1483 76.6752 45.0612 78.1301 44.2317L78.3404 44.1142C80.0809 43.1077 82.086 42.6048 84.091 42.6048C84.356 42.566 84.583 42.7594 84.6209 43.0304V50.7322C84.6209 51.0417 84.4315 51.1578 84.0155 51.1578C82.7443 51.1215 81.4404 51.2206 80.1955 51.4854L79.9295 51.5449C78.8324 51.7771 77.7729 52.1254 76.7514 52.5899C76.0325 52.9382 75.3515 53.4026 74.8219 54.0216V73.7595C74.8219 74.1466 74.6705 74.3015 74.33 74.3015H66.8769C66.5743 74.34 66.3094 74.1466 66.2714 73.8371V52.2416C66.2714 51.3127 66.2714 50.345 66.2338 49.3389L66.2111 48.5842L66.1806 47.0749C66.1746 46.8231 66.1675 46.5716 66.1579 46.3202C66.1579 45.4298 66.0824 44.5786 66.0068 43.6882C65.9689 43.4948 66.0824 43.3015 66.2714 43.2626C66.2714 43.2296 66.3271 43.2249 66.3668 43.2481L66.3849 43.2626Z" fill="#9999FF"/>
</g>
<defs>
<filter id="filter0_d_54_146" x="0.921143" y="0.288818" width="110.801" height="110.562" filterUnits="userSpaceOnUse" color-interpolation-filters="sRGB">
<feFlood flood-opacity="0" result="BackgroundImageFix"/>
<feColorMatrix in="SourceAlpha" type="matrix" values="0 0 0 0 0 0 0 0 0 0 0 0 0 0 0 0 0 0 127 0" result="hardAlpha"/>
<feOffset/>
<feGaussianBlur stdDeviation="5"/>
<feComposite in2="hardAlpha" operator="out"/>
<feColorMatrix type="matrix" values="0 0 0 0 0 0 0 0 0 0 0 0 0 0 0 0 0 0 0.5 0"/>
<feBlend mode="normal" in2="BackgroundImageFix" result="effect1_dropShadow_54_146"/>
<feBlend mode="normal" in="SourceGraphic" in2="effect1_dropShadow_54_146" result="shape"/>
</filter>
</defs>
</svg>
