<svg width="325" height="324" viewBox="0 0 325 324" fill="none" xmlns="http://www.w3.org/2000/svg">
<g filter="url(#filter0_d_45_35)">
<circle cx="167.96" cy="154.55" r="143.187" fill="#CCCCCC" fill-opacity="0.8"/>
<path d="M319.33 154.55C319.33 237.738 251.892 305.176 168.704 305.176C85.516 305.176 18.0787 237.738 18.0787 154.55C18.0787 71.3621 85.516 3.9248 168.704 3.9248C251.892 3.9248 319.33 71.3621 319.33 154.55ZM55.735 154.55C55.735 216.941 106.313 267.519 168.704 267.519C231.095 267.519 281.673 216.941 281.673 154.55C281.673 92.1591 231.095 41.5812 168.704 41.5812C106.313 41.5812 55.735 92.1591 55.735 154.55Z" fill="#F5E1B8"/>
<path d="M126.1 155.95C126.5 158.217 127.733 159.35 129.8 159.35C131.3 159.35 132.317 158.65 132.85 157.25C133.417 155.817 133.7 153.533 133.7 150.4C133.033 151.367 132.1 152.133 130.9 152.7C129.7 153.267 128.35 153.55 126.85 153.55C123.65 153.55 121.05 152.55 119.05 150.55C117.05 148.55 116.05 145.667 116.05 141.9C116.05 139.433 116.567 137.283 117.6 135.45C118.633 133.583 120.1 132.15 122 131.15C123.933 130.15 126.183 129.65 128.75 129.65C133.85 129.65 137.4 131.2 139.4 134.3C141.433 137.367 142.45 141.833 142.45 147.7C142.45 154.267 141.467 159.167 139.5 162.4C137.567 165.633 134.233 167.25 129.5 167.25C126.933 167.25 124.717 166.733 122.85 165.7C121.017 164.633 119.6 163.25 118.6 161.55C117.633 159.817 117.083 157.95 116.95 155.95H126.1ZM129.2 145.95C130.367 145.95 131.283 145.617 131.95 144.95C132.617 144.25 132.95 143.317 132.95 142.15C132.95 140.817 132.6 139.817 131.9 139.15C131.233 138.483 130.3 138.15 129.1 138.15C127.9 138.15 126.95 138.5 126.25 139.2C125.583 139.867 125.25 140.833 125.25 142.1C125.25 143.267 125.583 144.2 126.25 144.9C126.95 145.6 127.933 145.95 129.2 145.95ZM146.272 148.2C146.272 142.467 147.439 137.95 149.772 134.65C152.106 131.35 155.772 129.7 160.772 129.7C165.772 129.7 169.439 131.35 171.772 134.65C174.139 137.95 175.322 142.467 175.322 148.2C175.322 154 174.156 158.55 171.822 161.85C169.489 165.15 165.806 166.8 160.772 166.8C155.739 166.8 152.056 165.15 149.722 161.85C147.422 158.55 146.272 154 146.272 148.2ZM165.622 148.2C165.622 145.2 165.306 142.917 164.672 141.35C164.039 139.75 162.739 138.95 160.772 138.95C158.806 138.95 157.506 139.75 156.872 141.35C156.239 142.917 155.922 145.2 155.922 148.2C155.922 151.267 156.222 153.6 156.822 155.2C157.456 156.767 158.772 157.55 160.772 157.55C162.772 157.55 164.072 156.767 164.672 155.2C165.306 153.6 165.622 151.267 165.622 148.2ZM178.484 139.85C178.484 137.017 179.284 134.85 180.884 133.35C182.484 131.85 184.584 131.1 187.184 131.1C189.75 131.1 191.834 131.85 193.434 133.35C195.034 134.85 195.834 137.017 195.834 139.85C195.834 142.65 195.034 144.817 193.434 146.35C191.834 147.85 189.75 148.6 187.184 148.6C184.617 148.6 182.517 147.85 180.884 146.35C179.284 144.817 178.484 142.65 178.484 139.85ZM213.984 131.65L195.034 167H185.634L204.584 131.65H213.984ZM187.134 136.85C185.767 136.85 185.084 137.85 185.084 139.85C185.084 141.85 185.767 142.85 187.134 142.85C187.8 142.85 188.317 142.6 188.684 142.1C189.084 141.6 189.284 140.85 189.284 139.85C189.284 138.85 189.084 138.1 188.684 137.6C188.317 137.1 187.8 136.85 187.134 136.85ZM203.784 158.75C203.784 155.95 204.584 153.8 206.184 152.3C207.817 150.767 209.917 150 212.484 150C215.05 150 217.117 150.767 218.684 152.3C220.284 153.8 221.084 155.95 221.084 158.75C221.084 161.583 220.284 163.767 218.684 165.3C217.117 166.8 215.05 167.55 212.484 167.55C209.917 167.55 207.817 166.8 206.184 165.3C204.584 163.767 203.784 161.583 203.784 158.75ZM212.434 155.75C211.034 155.75 210.334 156.75 210.334 158.75C210.334 160.783 211.034 161.8 212.434 161.8C213.067 161.8 213.567 161.55 213.934 161.05C214.334 160.517 214.534 159.75 214.534 158.75C214.534 157.783 214.334 157.05 213.934 156.55C213.567 156.017 213.067 155.75 212.434 155.75Z" fill="black"/>
<path d="M168.165 22.958C168.165 12.5595 176.628 4.0084 186.946 5.30481C216.002 8.95582 243.514 21.0233 265.989 40.2188C293.26 63.5108 311.326 95.7694 316.936 131.192C322.547 166.615 315.334 202.877 296.595 233.457C277.856 264.036 248.82 286.926 214.711 298.008C180.602 309.091 143.658 307.64 110.524 293.915C77.3892 280.19 50.2393 255.093 33.9572 223.138C17.6751 191.182 13.3294 154.466 21.7018 119.592C28.6017 90.8524 43.7662 64.9186 65.1273 44.886C72.7122 37.7727 84.5849 39.7164 90.697 48.129C96.809 56.5416 94.8034 68.2207 87.5214 75.6438C73.2709 90.1706 63.1225 108.37 58.3177 128.383C52.0384 154.538 55.2977 182.076 67.5093 206.042C79.7208 230.009 100.083 248.831 124.934 259.125C149.785 269.419 177.493 270.507 203.075 262.195C228.657 253.883 250.433 236.716 264.487 213.781C278.542 190.847 283.951 163.65 279.744 137.083C275.536 110.516 261.987 86.3219 241.533 68.8529C225.882 55.4858 206.975 46.7275 186.907 43.3514C176.653 41.6262 168.165 33.3565 168.165 22.958Z" fill="#FAB833"/>
</g>
<defs>
<filter id="filter0_d_45_35" x="0.639826" y="0.0248051" width="323.59" height="323.256" filterUnits="userSpaceOnUse" color-interpolation-filters="sRGB">
<feFlood flood-opacity="0" result="BackgroundImageFix"/>
<feColorMatrix in="SourceAlpha" type="matrix" values="0 0 0 0 0 0 0 0 0 0 0 0 0 0 0 0 0 0 127 0" result="hardAlpha"/>
<feOffset dx="-6" dy="7"/>
<feGaussianBlur stdDeviation="5.45"/>
<feComposite in2="hardAlpha" operator="out"/>
<feColorMatrix type="matrix" values="0 0 0 0 0 0 0 0 0 0 0 0 0 0 0 0 0 0 0.25 0"/>
<feBlend mode="normal" in2="BackgroundImageFix" result="effect1_dropShadow_45_35"/>
<feBlend mode="normal" in="SourceGraphic" in2="effect1_dropShadow_45_35" result="shape"/>
</filter>
</defs>
</svg>
