<svg width="324" height="324" viewBox="0 0 324 324" fill="none" xmlns="http://www.w3.org/2000/svg">
<g filter="url(#filter0_d_45_61)">
<circle cx="167.343" cy="154.55" r="143.187" fill="#CCCCCC" fill-opacity="0.8"/>
<path d="M318.712 154.55C318.712 237.738 251.275 305.176 168.086 305.176C84.8984 305.176 17.4611 237.738 17.4611 154.55C17.4611 71.3621 84.8984 3.9248 168.086 3.9248C251.275 3.9248 318.712 71.3621 318.712 154.55ZM55.1174 154.55C55.1174 216.941 105.695 267.519 168.086 267.519C230.478 267.519 281.056 216.941 281.056 154.55C281.056 92.1591 230.478 41.5812 168.086 41.5812C105.695 41.5812 55.1174 92.1591 55.1174 154.55Z" fill="#F5E1B8"/>
<path d="M114.55 161V152.9L129.9 131H140.65V152.5H144.5V161H140.65V167H130.75V161H114.55ZM131.5 142.05L124.6 152.5H131.5V142.05ZM175.12 139.1H160.12V144.65C160.754 143.983 161.62 143.45 162.72 143.05C163.82 142.65 165.037 142.45 166.37 142.45C168.77 142.45 170.77 143 172.37 144.1C174.004 145.2 175.204 146.65 175.97 148.45C176.737 150.25 177.12 152.217 177.12 154.35C177.12 158.283 176.004 161.383 173.77 163.65C171.537 165.883 168.437 167 164.47 167C161.704 167 159.304 166.533 157.27 165.6C155.27 164.633 153.737 163.3 152.67 161.6C151.604 159.9 151.054 157.95 151.02 155.75H160.57C160.67 156.517 161.004 157.183 161.57 157.75C162.137 158.317 162.97 158.6 164.07 158.6C165.237 158.6 166.12 158.2 166.72 157.4C167.32 156.6 167.62 155.533 167.62 154.2C167.62 152.9 167.304 151.917 166.67 151.25C166.037 150.55 165.12 150.2 163.92 150.2C163.02 150.2 162.287 150.433 161.72 150.9C161.187 151.333 160.87 151.883 160.77 152.55H151.22V130.45H175.12V139.1ZM180.634 139.85C180.634 137.017 181.434 134.85 183.034 133.35C184.634 131.85 186.734 131.1 189.334 131.1C191.901 131.1 193.984 131.85 195.584 133.35C197.184 134.85 197.984 137.017 197.984 139.85C197.984 142.65 197.184 144.817 195.584 146.35C193.984 147.85 191.901 148.6 189.334 148.6C186.767 148.6 184.667 147.85 183.034 146.35C181.434 144.817 180.634 142.65 180.634 139.85ZM216.134 131.65L197.184 167H187.784L206.734 131.65H216.134ZM189.284 136.85C187.917 136.85 187.234 137.85 187.234 139.85C187.234 141.85 187.917 142.85 189.284 142.85C189.951 142.85 190.467 142.6 190.834 142.1C191.234 141.6 191.434 140.85 191.434 139.85C191.434 138.85 191.234 138.1 190.834 137.6C190.467 137.1 189.951 136.85 189.284 136.85ZM205.934 158.75C205.934 155.95 206.734 153.8 208.334 152.3C209.967 150.767 212.067 150 214.634 150C217.201 150 219.267 150.767 220.834 152.3C222.434 153.8 223.234 155.95 223.234 158.75C223.234 161.583 222.434 163.767 220.834 165.3C219.267 166.8 217.201 167.55 214.634 167.55C212.067 167.55 209.967 166.8 208.334 165.3C206.734 163.767 205.934 161.583 205.934 158.75ZM214.584 155.75C213.184 155.75 212.484 156.75 212.484 158.75C212.484 160.783 213.184 161.8 214.584 161.8C215.217 161.8 215.717 161.55 216.084 161.05C216.484 160.517 216.684 159.75 216.684 158.75C216.684 157.783 216.484 157.05 216.084 156.55C215.717 156.017 215.217 155.75 214.584 155.75Z" fill="black"/>
<path d="M167.548 22.958C167.548 12.5595 176.01 4.0084 186.328 5.30481C215.384 8.95582 242.896 21.0233 265.371 40.2188C292.643 63.5108 310.708 95.7694 316.319 131.192C321.929 166.615 314.716 202.877 295.977 233.457C280.534 258.658 258.097 278.636 231.591 291.088C222.18 295.509 211.489 289.991 208.275 280.102C205.062 270.212 210.579 259.725 219.798 254.915C237.84 245.503 253.116 231.331 263.87 213.781C277.924 190.847 283.334 163.65 279.126 137.083C274.918 110.516 261.369 86.3219 240.915 68.8529C225.265 55.4858 206.357 46.7275 186.29 43.3514C176.035 41.6262 167.548 33.3565 167.548 22.958Z" fill="#FAB833"/>
</g>
<defs>
<filter id="filter0_d_45_61" x="0.56106" y="0.0248051" width="323.051" height="323.051" filterUnits="userSpaceOnUse" color-interpolation-filters="sRGB">
<feFlood flood-opacity="0" result="BackgroundImageFix"/>
<feColorMatrix in="SourceAlpha" type="matrix" values="0 0 0 0 0 0 0 0 0 0 0 0 0 0 0 0 0 0 127 0" result="hardAlpha"/>
<feOffset dx="-6" dy="7"/>
<feGaussianBlur stdDeviation="5.45"/>
<feComposite in2="hardAlpha" operator="out"/>
<feColorMatrix type="matrix" values="0 0 0 0 0 0 0 0 0 0 0 0 0 0 0 0 0 0 0.25 0"/>
<feBlend mode="normal" in2="BackgroundImageFix" result="effect1_dropShadow_45_61"/>
<feBlend mode="normal" in="SourceGraphic" in2="effect1_dropShadow_45_61" result="shape"/>
</filter>
</defs>
</svg>
