<svg width="325" height="324" viewBox="0 0 325 324" fill="none" xmlns="http://www.w3.org/2000/svg">
<g filter="url(#filter0_d_45_51)">
<circle cx="167.758" cy="154.55" r="143.187" fill="#CCCCCC" fill-opacity="0.8"/>
<path d="M319.128 154.55C319.128 237.738 251.69 305.176 168.502 305.176C85.3141 305.176 17.8768 237.738 17.8768 154.55C17.8768 71.3621 85.3141 3.9248 168.502 3.9248C251.69 3.9248 319.128 71.3621 319.128 154.55ZM55.5332 154.55C55.5332 216.941 106.111 267.519 168.502 267.519C230.893 267.519 281.471 216.941 281.471 154.55C281.471 92.1591 230.893 41.5812 168.502 41.5812C106.111 41.5812 55.5332 92.1591 55.5332 154.55Z" fill="#F5E1B8"/>
<path d="M120.85 147.15C117.883 145.517 116.4 142.967 116.4 139.5C116.4 137.7 116.867 136.067 117.8 134.6C118.767 133.1 120.217 131.917 122.15 131.05C124.083 130.15 126.467 129.7 129.3 129.7C132.133 129.7 134.517 130.15 136.45 131.05C138.383 131.917 139.817 133.1 140.75 134.6C141.717 136.067 142.2 137.7 142.2 139.5C142.2 141.267 141.8 142.8 141 144.1C140.233 145.367 139.15 146.383 137.75 147.15C139.483 148.05 140.8 149.25 141.7 150.75C142.6 152.25 143.05 154.017 143.05 156.05C143.05 158.483 142.433 160.583 141.2 162.35C139.967 164.083 138.3 165.4 136.2 166.3C134.133 167.2 131.833 167.65 129.3 167.65C126.767 167.65 124.45 167.2 122.35 166.3C120.283 165.4 118.633 164.083 117.4 162.35C116.167 160.583 115.55 158.483 115.55 156.05C115.55 154.017 116 152.25 116.9 150.75C117.8 149.25 119.117 148.05 120.85 147.15ZM132.6 141.05C132.6 139.883 132.3 138.983 131.7 138.35C131.1 137.683 130.3 137.35 129.3 137.35C128.333 137.35 127.533 137.683 126.9 138.35C126.3 139.017 126 139.917 126 141.05C126 142.183 126.3 143.067 126.9 143.7C127.533 144.333 128.333 144.65 129.3 144.65C130.267 144.65 131.05 144.333 131.65 143.7C132.283 143.067 132.6 142.183 132.6 141.05ZM129.3 151.35C128.033 151.35 127 151.733 126.2 152.5C125.433 153.233 125.05 154.233 125.05 155.5C125.05 156.7 125.433 157.683 126.2 158.45C126.967 159.217 128 159.6 129.3 159.6C130.6 159.6 131.617 159.217 132.35 158.45C133.117 157.683 133.5 156.7 133.5 155.5C133.5 154.233 133.117 153.233 132.35 152.5C131.583 151.733 130.567 151.35 129.3 151.35ZM174.216 139.1H159.216V144.65C159.849 143.983 160.716 143.45 161.816 143.05C162.916 142.65 164.133 142.45 165.466 142.45C167.866 142.45 169.866 143 171.466 144.1C173.099 145.2 174.299 146.65 175.066 148.45C175.833 150.25 176.216 152.217 176.216 154.35C176.216 158.283 175.099 161.383 172.866 163.65C170.633 165.883 167.533 167 163.566 167C160.799 167 158.399 166.533 156.366 165.6C154.366 164.633 152.833 163.3 151.766 161.6C150.699 159.9 150.149 157.95 150.116 155.75H159.666C159.766 156.517 160.099 157.183 160.666 157.75C161.233 158.317 162.066 158.6 163.166 158.6C164.333 158.6 165.216 158.2 165.816 157.4C166.416 156.6 166.716 155.533 166.716 154.2C166.716 152.9 166.399 151.917 165.766 151.25C165.133 150.55 164.216 150.2 163.016 150.2C162.116 150.2 161.383 150.433 160.816 150.9C160.283 151.333 159.966 151.883 159.866 152.55H150.316V130.45H174.216V139.1ZM179.73 139.85C179.73 137.017 180.53 134.85 182.13 133.35C183.73 131.85 185.83 131.1 188.43 131.1C190.996 131.1 193.08 131.85 194.68 133.35C196.28 134.85 197.08 137.017 197.08 139.85C197.08 142.65 196.28 144.817 194.68 146.35C193.08 147.85 190.996 148.6 188.43 148.6C185.863 148.6 183.763 147.85 182.13 146.35C180.53 144.817 179.73 142.65 179.73 139.85ZM215.23 131.65L196.28 167H186.88L205.83 131.65H215.23ZM188.38 136.85C187.013 136.85 186.33 137.85 186.33 139.85C186.33 141.85 187.013 142.85 188.38 142.85C189.046 142.85 189.563 142.6 189.93 142.1C190.33 141.6 190.53 140.85 190.53 139.85C190.53 138.85 190.33 138.1 189.93 137.6C189.563 137.1 189.046 136.85 188.38 136.85ZM205.03 158.75C205.03 155.95 205.83 153.8 207.43 152.3C209.063 150.767 211.163 150 213.73 150C216.296 150 218.363 150.767 219.93 152.3C221.53 153.8 222.33 155.95 222.33 158.75C222.33 161.583 221.53 163.767 219.93 165.3C218.363 166.8 216.296 167.55 213.73 167.55C211.163 167.55 209.063 166.8 207.43 165.3C205.83 163.767 205.03 161.583 205.03 158.75ZM213.68 155.75C212.28 155.75 211.58 156.75 211.58 158.75C211.58 160.783 212.28 161.8 213.68 161.8C214.313 161.8 214.813 161.55 215.18 161.05C215.58 160.517 215.78 159.75 215.78 158.75C215.78 157.783 215.58 157.05 215.18 156.55C214.813 156.017 214.313 155.75 213.68 155.75Z" fill="black"/>
<path d="M167.964 22.958C167.964 12.5595 176.426 4.00843 186.743 5.30485C213.823 8.70746 239.597 19.4242 261.215 36.4665C287.785 57.4125 306.529 86.6939 314.427 119.592C322.325 152.491 318.918 187.09 304.753 217.816C290.588 248.541 266.492 273.603 236.346 288.963C206.2 304.323 171.761 309.087 138.578 302.486C105.395 295.886 75.4001 278.306 53.4271 252.579C31.4541 226.852 18.7826 194.476 17.4543 160.669C16.3735 133.162 22.8532 106.011 36.0173 82.1035C41.0329 72.9946 52.9247 71.1747 61.3373 77.2868C69.7499 83.3988 71.4517 95.1259 66.82 104.436C58.4184 121.324 54.3332 140.143 55.0816 159.19C56.0778 184.546 65.5815 208.827 82.0612 228.123C98.541 247.418 121.037 260.603 145.924 265.554C170.812 270.504 196.641 266.931 219.25 255.411C241.86 243.891 259.932 225.095 270.556 202.051C281.179 179.007 283.735 153.057 277.811 128.383C271.888 103.709 257.829 81.7482 237.902 66.0387C222.933 54.2377 205.306 46.4808 186.705 43.3514C176.451 41.6263 167.964 33.3565 167.964 22.958Z" fill="#FAB833"/>
</g>
<defs>
<filter id="filter0_d_45_51" x="0.438074" y="0.0248051" width="323.59" height="323.256" filterUnits="userSpaceOnUse" color-interpolation-filters="sRGB">
<feFlood flood-opacity="0" result="BackgroundImageFix"/>
<feColorMatrix in="SourceAlpha" type="matrix" values="0 0 0 0 0 0 0 0 0 0 0 0 0 0 0 0 0 0 127 0" result="hardAlpha"/>
<feOffset dx="-6" dy="7"/>
<feGaussianBlur stdDeviation="5.45"/>
<feComposite in2="hardAlpha" operator="out"/>
<feColorMatrix type="matrix" values="0 0 0 0 0 0 0 0 0 0 0 0 0 0 0 0 0 0 0.25 0"/>
<feBlend mode="normal" in2="BackgroundImageFix" result="effect1_dropShadow_45_51"/>
<feBlend mode="normal" in="SourceGraphic" in2="effect1_dropShadow_45_51" result="shape"/>
</filter>
</defs>
</svg>
