<svg width="324" height="324" viewBox="0 0 324 324" fill="none" xmlns="http://www.w3.org/2000/svg">
<g filter="url(#filter0_d_45_66)">
<circle cx="167.005" cy="154.55" r="143.187" fill="#CCCCCC" fill-opacity="0.8"/>
<path d="M318.374 154.55C318.374 237.738 250.936 305.176 167.748 305.176C84.5602 305.176 17.1229 237.738 17.1229 154.55C17.1229 71.3621 84.5602 3.9248 167.748 3.9248C250.936 3.9248 318.374 71.3621 318.374 154.55ZM54.7793 154.55C54.7793 216.941 105.357 267.519 167.748 267.519C230.139 267.519 280.717 216.941 280.717 154.55C280.717 92.1591 230.139 41.5812 167.748 41.5812C105.357 41.5812 54.7793 92.1591 54.7793 154.55Z" fill="#F5E1B8"/>
<path d="M132.3 140.95C132.067 139.817 131.683 138.983 131.15 138.45C130.617 137.917 129.833 137.65 128.8 137.65C127.233 137.65 126.133 138.383 125.5 139.85C124.9 141.317 124.583 143.617 124.55 146.75C125.217 145.717 126.183 144.9 127.45 144.3C128.717 143.7 130.117 143.4 131.65 143.4C134.883 143.4 137.467 144.4 139.4 146.4C141.367 148.4 142.35 151.267 142.35 155C142.35 157.467 141.833 159.633 140.8 161.5C139.8 163.333 138.333 164.75 136.4 165.75C134.5 166.75 132.25 167.25 129.65 167.25C124.483 167.25 120.883 165.65 118.85 162.45C116.85 159.217 115.85 154.65 115.85 148.75C115.85 142.217 116.917 137.417 119.05 134.35C121.183 131.283 124.617 129.75 129.35 129.75C133.183 129.75 136.083 130.833 138.05 133C140.05 135.133 141.167 137.783 141.4 140.95H132.3ZM129.25 151C128.083 151 127.117 151.333 126.35 152C125.617 152.667 125.25 153.617 125.25 154.85C125.25 156.15 125.6 157.15 126.3 157.85C127 158.55 128 158.9 129.3 158.9C130.5 158.9 131.433 158.567 132.1 157.9C132.8 157.2 133.15 156.217 133.15 154.95C133.15 153.717 132.8 152.75 132.1 152.05C131.433 151.35 130.483 151 129.25 151ZM146.688 148.2C146.688 142.467 147.855 137.95 150.188 134.65C152.522 131.35 156.188 129.7 161.188 129.7C166.188 129.7 169.855 131.35 172.188 134.65C174.555 137.95 175.738 142.467 175.738 148.2C175.738 154 174.572 158.55 172.238 161.85C169.905 165.15 166.222 166.8 161.188 166.8C156.155 166.8 152.472 165.15 150.138 161.85C147.838 158.55 146.688 154 146.688 148.2ZM166.038 148.2C166.038 145.2 165.722 142.917 165.088 141.35C164.455 139.75 163.155 138.95 161.188 138.95C159.222 138.95 157.922 139.75 157.288 141.35C156.655 142.917 156.338 145.2 156.338 148.2C156.338 151.267 156.638 153.6 157.238 155.2C157.872 156.767 159.188 157.55 161.188 157.55C163.188 157.55 164.488 156.767 165.088 155.2C165.722 153.6 166.038 151.267 166.038 148.2ZM178.9 139.85C178.9 137.017 179.7 134.85 181.3 133.35C182.9 131.85 185 131.1 187.6 131.1C190.166 131.1 192.25 131.85 193.85 133.35C195.45 134.85 196.25 137.017 196.25 139.85C196.25 142.65 195.45 144.817 193.85 146.35C192.25 147.85 190.166 148.6 187.6 148.6C185.033 148.6 182.933 147.85 181.3 146.35C179.7 144.817 178.9 142.65 178.9 139.85ZM214.4 131.65L195.45 167H186.05L205 131.65H214.4ZM187.55 136.85C186.183 136.85 185.5 137.85 185.5 139.85C185.5 141.85 186.183 142.85 187.55 142.85C188.216 142.85 188.733 142.6 189.1 142.1C189.5 141.6 189.7 140.85 189.7 139.85C189.7 138.85 189.5 138.1 189.1 137.6C188.733 137.1 188.216 136.85 187.55 136.85ZM204.2 158.75C204.2 155.95 205 153.8 206.6 152.3C208.233 150.767 210.333 150 212.9 150C215.466 150 217.533 150.767 219.1 152.3C220.7 153.8 221.5 155.95 221.5 158.75C221.5 161.583 220.7 163.767 219.1 165.3C217.533 166.8 215.466 167.55 212.9 167.55C210.333 167.55 208.233 166.8 206.6 165.3C205 163.767 204.2 161.583 204.2 158.75ZM212.85 155.75C211.45 155.75 210.75 156.75 210.75 158.75C210.75 160.783 211.45 161.8 212.85 161.8C213.483 161.8 213.983 161.55 214.35 161.05C214.75 160.517 214.95 159.75 214.95 158.75C214.95 157.783 214.75 157.05 214.35 156.55C213.983 156.017 213.483 155.75 212.85 155.75Z" fill="black"/>
<path d="M167.21 22.958C167.21 12.5595 175.672 4.00858 185.989 5.30503C203.234 7.47199 220.022 12.6136 235.592 20.547C256.772 31.3384 275.096 46.9893 289.068 66.2198C303.04 85.4504 312.262 107.715 315.981 131.192C319.699 154.67 317.808 178.694 310.463 201.301C303.117 223.908 290.526 244.455 273.718 261.263C256.91 278.072 236.362 290.663 213.755 298.008C191.149 305.354 167.124 307.245 143.647 303.526C126.387 300.792 109.783 295.084 94.5579 286.701C85.449 281.686 83.6291 269.794 89.7412 261.381C95.8533 252.969 107.58 251.267 116.89 255.899C127.146 261.001 138.151 264.53 149.537 266.333C167.146 269.122 185.164 267.704 202.119 262.195C219.074 256.686 234.485 247.242 247.091 234.636C259.697 222.03 269.141 206.62 274.65 189.665C280.159 172.709 281.577 154.691 278.788 137.083C275.999 119.475 269.082 102.777 258.604 88.3537C248.125 73.9308 234.381 62.1926 218.497 54.099C208.225 48.8655 197.247 45.2519 185.951 43.3516C175.697 41.6264 167.21 33.3565 167.21 22.958Z" fill="#FAB833"/>
</g>
<defs>
<filter id="filter0_d_45_66" x="0.222925" y="0.0248051" width="323.051" height="323.256" filterUnits="userSpaceOnUse" color-interpolation-filters="sRGB">
<feFlood flood-opacity="0" result="BackgroundImageFix"/>
<feColorMatrix in="SourceAlpha" type="matrix" values="0 0 0 0 0 0 0 0 0 0 0 0 0 0 0 0 0 0 127 0" result="hardAlpha"/>
<feOffset dx="-6" dy="7"/>
<feGaussianBlur stdDeviation="5.45"/>
<feComposite in2="hardAlpha" operator="out"/>
<feColorMatrix type="matrix" values="0 0 0 0 0 0 0 0 0 0 0 0 0 0 0 0 0 0 0.25 0"/>
<feBlend mode="normal" in2="BackgroundImageFix" result="effect1_dropShadow_45_66"/>
<feBlend mode="normal" in="SourceGraphic" in2="effect1_dropShadow_45_66" result="shape"/>
</filter>
</defs>
</svg>
