<svg width="35" height="41" viewBox="0 0 35 41" fill="none" xmlns="http://www.w3.org/2000/svg">
<path id="Vector" d="M17.5 0.628036C14.8478 0.628036 12.3043 1.68052 10.4289 3.55396C8.55357 5.4274 7.5 7.96832 7.5 10.6178C7.5 13.2672 8.55357 15.8081 10.4289 17.6816C12.3043 19.555 14.8478 20.6075 17.5 20.6075C20.1522 20.6075 22.6957 19.555 24.5711 17.6816C26.4464 15.8081 27.5 13.2672 27.5 10.6178C27.5 7.96832 26.4464 5.4274 24.5711 3.55396C22.6957 1.68052 20.1522 0.628036 17.5 0.628036ZM5.0225 23.1049C4.36409 23.1023 3.71164 23.2295 3.10256 23.4793C2.49348 23.7291 1.93976 24.0966 1.47315 24.5606C1.00654 25.0247 0.636212 25.5762 0.383416 26.1835C0.13062 26.7908 0.00032378 27.442 0 28.0998C0 32.3229 2.0825 35.5072 5.3375 37.5825C8.5425 39.6229 12.8625 40.5869 17.5 40.5869C22.1375 40.5869 26.4575 39.6229 29.6625 37.5825C32.9175 35.5097 35 32.3204 35 28.0998C35 26.7751 34.4732 25.5046 33.5355 24.5679C32.5979 23.6312 31.3261 23.1049 30 23.1049H5.0225Z" fill="#F8F8F8"/>
</svg>
