<svg width="36" height="37" viewBox="0 0 36 37" fill="none" xmlns="http://www.w3.org/2000/svg">
<path id="Vector" d="M18 0.501648C19.6128 0.501648 21.1752 0.71383 22.662 1.11122L18.8352 4.93229C18.5449 5.22347 18.2888 5.54684 18.072 5.8961H18C15.508 5.8961 13.0719 6.63432 10.9998 8.0174C8.92776 9.40048 7.31278 11.3663 6.35912 13.6663C5.40545 15.9663 5.15593 18.4971 5.64211 20.9388C6.12828 23.3804 7.32831 25.6232 9.09045 27.3835C10.8526 29.1439 13.0977 30.3427 15.5419 30.8284C17.986 31.314 20.5195 31.0648 22.8218 30.1121C25.1242 29.1594 27.092 27.5461 28.4765 25.4761C29.861 23.4062 30.6 20.9726 30.6 18.4832V18.4112C30.9456 18.1954 31.2696 17.9419 31.563 17.647L35.3898 13.8259C35.7876 15.3112 36 16.872 36 18.4832C36 28.4143 27.9414 36.4647 18 36.4647C8.0586 36.4647 0 28.4143 0 18.4832C0 8.55197 8.0586 0.501648 18 0.501648ZM17.2548 9.52297C17.2548 11.0532 17.1792 12.605 17.262 14.1334L16.29 15.1044C15.9556 15.4384 15.6904 15.835 15.5095 16.2714C15.3285 16.7078 15.2354 17.1755 15.2354 17.6479C15.2354 18.1203 15.3285 18.588 15.5095 19.0244C15.6904 19.4608 15.9556 19.8574 16.29 20.1914C16.6244 20.5254 17.0213 20.7904 17.4582 20.9711C17.895 21.1519 18.3632 21.2449 18.8361 21.2449C19.309 21.2449 19.7772 21.1519 20.214 20.9711C20.6509 20.7904 21.0478 20.5254 21.3822 20.1914L22.3542 19.2204C23.8842 19.3031 25.4358 19.2276 26.9694 19.2276C26.8272 20.9364 26.1988 22.569 25.1583 23.9328C24.1178 25.2966 22.7086 26.3347 21.0968 26.9247C19.4851 27.5146 17.7381 27.6319 16.0619 27.2626C14.3857 26.8932 12.8501 26.0528 11.6364 24.8402C10.4226 23.6277 9.58127 22.0938 9.21156 20.4193C8.84186 18.7448 8.95921 16.9996 9.54979 15.3895C10.1404 13.7794 11.1795 12.3717 12.5447 11.3322C13.9099 10.2928 15.5442 9.66501 17.2548 9.52297ZM29.7072 0.730013C30.0357 0.866095 30.3166 1.09636 30.5142 1.39175C30.7119 1.68714 30.8175 2.0344 30.8178 2.38971V5.68032H34.11C34.466 5.6804 34.8139 5.7859 35.1098 5.98349C35.4058 6.18107 35.6364 6.46188 35.7726 6.7904C35.9088 7.11892 35.9445 7.48041 35.875 7.82917C35.8056 8.17792 35.6343 8.49829 35.3826 8.74976L29.016 15.1026C28.6785 15.4399 28.2208 15.6294 27.7434 15.6295H23.4L20.1096 18.9183C19.7718 19.2557 19.3138 19.4453 18.8361 19.4453C18.3584 19.4453 17.9004 19.2557 17.5626 18.9183C17.2248 18.5809 17.0351 18.1233 17.0351 17.6461C17.0351 17.1689 17.2248 16.7113 17.5626 16.3739L20.8548 13.0887V8.74797C20.8546 8.51155 20.9011 8.27741 20.9916 8.05896C21.0821 7.8405 21.2148 7.64202 21.3822 7.47487L27.7452 1.11841C27.9969 0.866793 28.3177 0.695414 28.6669 0.625957C29.0162 0.556499 29.3782 0.592086 29.7072 0.728215" fill="#F8F8F8"/>
</svg>
