<svg width="28" height="606" viewBox="0 0 28 606" fill="none" xmlns="http://www.w3.org/2000/svg">
<path d="M14 0.666667C6.6362 0.666667 0.666667 6.6362 0.666667 14C0.666667 21.3638 6.6362 27.3333 14 27.3333C21.3638 27.3333 27.3333 21.3638 27.3333 14C27.3333 6.6362 21.3638 0.666667 14 0.666667ZM14 578.667C6.6362 578.667 0.666667 584.636 0.666667 592C0.666667 599.364 6.6362 605.333 14 605.333C21.3638 605.333 27.3333 599.364 27.3333 592C27.3333 584.636 21.3638 578.667 14 578.667ZM11.5 14L11.5 592H16.5L16.5 14H11.5Z" fill="#FAB833"/>
</svg>
