<svg width="37" height="37" viewBox="0 0 37 37" fill="none" xmlns="http://www.w3.org/2000/svg">
<g id="Group">
<path id="Vector" fill-rule="evenodd" clip-rule="evenodd" d="M18.5 6.1665C19.8182 6.1665 21.1702 6.20042 22.4806 6.25592L24.0285 6.32992L25.51 6.4178L26.8975 6.51184L28.1647 6.6105C29.54 6.71577 30.8341 7.30263 31.8193 8.26786C32.8046 9.23308 33.4179 10.5148 33.5513 11.8876L33.613 12.5428L33.7286 13.9458C33.8365 15.3995 33.9167 16.9844 33.9167 18.4998C33.9167 20.0153 33.8365 21.6001 33.7286 23.0539L33.613 24.4568C33.593 24.6819 33.5729 24.8993 33.5513 25.112C33.4178 26.4851 32.8043 27.767 31.8187 28.7323C30.8332 29.6975 29.5387 30.2843 28.1632 30.3892L26.899 30.4863L25.5115 30.5819L24.0285 30.6698L22.4806 30.7438C21.1545 30.8014 19.8274 30.8312 18.5 30.8332C17.1727 30.8312 15.8455 30.8014 14.5195 30.7438L12.9716 30.6698L11.4901 30.5819L10.1026 30.4863L8.83533 30.3892C7.46009 30.2839 6.16602 29.697 5.18077 28.7318C4.19552 27.7666 3.58222 26.4848 3.44875 25.112L3.38708 24.4568L3.27146 23.0539C3.15358 21.5387 3.09084 20.0196 3.08337 18.4998C3.08337 16.9844 3.16354 15.3995 3.27146 13.9458L3.38708 12.5428C3.40712 12.3178 3.42717 12.1004 3.44875 11.8876C3.58217 10.5151 4.19525 9.23352 5.18018 8.26832C6.16511 7.30313 7.45882 6.71611 8.83379 6.6105L10.0995 6.51184L11.487 6.4178L12.9701 6.32992L14.5179 6.25592C15.8445 6.19831 17.1722 6.1685 18.5 6.1665ZM15.4167 14.7613V22.2384C15.4167 22.9506 16.1875 23.3946 16.8042 23.04L23.2792 19.3015C23.4201 19.2204 23.5371 19.1036 23.6185 18.9629C23.6999 18.8221 23.7427 18.6624 23.7427 18.4998C23.7427 18.3373 23.6999 18.1776 23.6185 18.0368C23.5371 17.8961 23.4201 17.7793 23.2792 17.6982L16.8042 13.9612C16.6635 13.88 16.504 13.8372 16.3416 13.8372C16.1791 13.8373 16.0196 13.8801 15.879 13.9613C15.7383 14.0426 15.6216 14.1594 15.5404 14.3001C15.4593 14.4408 15.4166 14.6004 15.4167 14.7628V14.7613Z" fill="#F8F8F8"/>
</g>
</svg>
