<svg width="28" height="28" viewBox="0 0 28 28" fill="none" xmlns="http://www.w3.org/2000/svg">
<path id="Vector" d="M25.375 0H2.625C1.18125 0 0 1.18125 0 2.625V25.375C0 26.8188 1.18125 28 2.625 28H25.375C26.8188 28 28 26.8188 28 25.375V2.625C28 1.18125 26.8188 0 25.375 0ZM19.25 4.375C19.25 3.89375 19.6437 3.5 20.125 3.5H23.625C24.1063 3.5 24.5 3.89375 24.5 4.375V7.875C24.5 8.35625 24.1063 8.75 23.625 8.75H20.125C19.8931 8.74954 19.6708 8.6572 19.5068 8.49321C19.3428 8.32921 19.2505 8.10692 19.25 7.875V4.375ZM14 8.75C15.3689 8.78535 16.6699 9.35398 17.6256 10.3347C18.5813 11.3154 19.1162 12.6306 19.1162 14C19.1162 15.3694 18.5813 16.6846 17.6256 17.6653C16.6699 18.646 15.3689 19.2147 14 19.25C12.6311 19.2147 11.3301 18.646 10.3744 17.6653C9.41868 16.6846 8.88382 15.3694 8.88382 14C8.88382 12.6306 9.41868 11.3154 10.3744 10.3347C11.3301 9.35398 12.6311 8.78535 14 8.75ZM24.5 23.625C24.5 24.1063 24.1063 24.5 23.625 24.5H4.375C4.14308 24.4995 3.92079 24.4072 3.75679 24.2432C3.5928 24.0792 3.50046 23.8569 3.5 23.625V12.25H5.425C5.16514 13.5215 5.19141 14.8348 5.50192 16.0949C5.81243 17.355 6.39939 18.5302 7.22027 19.5353C8.04115 20.5405 9.07537 21.3504 10.248 21.9064C11.4206 22.4624 12.7022 22.7506 14 22.75C15.2978 22.7506 16.5794 22.4624 17.752 21.9064C18.9246 21.3504 19.9589 20.5405 20.7797 19.5353C21.6006 18.5302 22.1876 17.355 22.4981 16.0949C22.8086 14.8348 22.8349 13.5215 22.575 12.25H24.5V23.625Z" fill="#F8F8F8"/>
</svg>
